<svg xmlns="http://www.w3.org/2000/svg" xmlns:xlink="http://www.w3.org/1999/xlink" width="128" height="128" style="enable-background:new 0 0 128 128"><radialGradient id="SVGID_1_" cx="63.333" cy="3.333" r="120.141" gradientUnits="userSpaceOnUse"><stop offset="0" style="stop-color:#eee"/><stop offset=".317" style="stop-color:#ebebeb"/><stop offset=".578" style="stop-color:#e1e1e1"/><stop offset=".819" style="stop-color:#cfcfcf"/><stop offset="1" style="stop-color:#bdbdbd"/></radialGradient><rect style="fill:url(#SVGID_1_)" width="120" height="120" x="4" y="4"/><g style="opacity:.2"><path d="M121,7v114H7V7H121 M124,4H4v120h120V4L124,4z" style="fill:#424242"/></g><radialGradient id="SVGID_2_" cx="63.667" cy="5.667" r="109.364" gradientUnits="userSpaceOnUse"><stop offset="0" style="stop-color:#616161"/><stop offset=".22" style="stop-color:#5e5e5e"/><stop offset=".407" style="stop-color:#535353"/><stop offset=".582" style="stop-color:#424242"/><stop offset=".749" style="stop-color:#292929"/><stop offset=".794" style="stop-color:#212121"/><stop offset="1" style="stop-color:#212121"/></radialGradient><path d="M4,4v24h16v60c0,2.21,1.79,4,4,4h12c2.21,0,4-1.79,4-4V28h14v60c0,2.21,1.79,4,4,4h12 c2.21,0,4-1.79,4-4V28h14v60c0,2.21,1.79,4,4,4h12c2.21,0,4-1.79,4-4V28h16V4H4z" style="fill:url(#SVGID_2_)"/><g style="opacity:.2"><path d="M121,7v18h-13c-1.66,0-3,1.34-3,3v60c0,0.55-0.45,1-1,1H92c-0.55,0-1-0.45-1-1V28c0-1.66-1.34-3-3-3 H74c-1.66,0-3,1.34-3,3v60c0,0.55-0.45,1-1,1H58c-0.55,0-1-0.45-1-1V28c0-1.66-1.34-3-3-3H40c-1.66,0-3,1.34-3,3v60 c0,0.55-0.45,1-1,1H24c-0.55,0-1-0.45-1-1V28c0-1.66-1.34-3-3-3H7V7H121 M124,4H4v24h16v60c0,2.21,1.79,4,4,4h12c2.21,0,4-1.79,4-4 V28h14v60c0,2.21,1.79,4,4,4h12c2.21,0,4-1.79,4-4V28h14v60c0,2.21,1.79,4,4,4h12c2.21,0,4-1.79,4-4V28h16V4L124,4z" style="fill:#eee"/></g><rect style="fill:none" width="14" height="56" x="40" y="28"/><rect style="fill:none" width="14" height="56" x="74" y="28"/><rect style="fill:#424242" width="114" height="8" x="7" y="20"/><rect style="fill:#424242" width="4" height="32" x="28" y="92"/><rect style="fill:#424242" width="4" height="32" x="62.06" y="92"/><rect style="fill:#424242" width="4" height="32" x="96" y="92"/></svg>